<svg xmlns="http://www.w3.org/2000/svg" viewBox="0 0 100 100" fill="none">
  <rect width="100" height="100" rx="20" fill="#1e90ff"/>
  
  <g transform="translate(50, 20)">
    <path d="M 0,0 C -8,-15 -12,-20 -12,-28 C -12,-36 -7,-42 0,-42 C 7,-42 12,-36 12,-28 C 12,-20 8,-15 0,0 Z" fill="#ffffff"/>
  </g>
  
  <g transform="translate(30, 50)">
    <path d="M 0,0 C -6,-12 -10,-16 -10,-23 C -10,-29 -5,-34 0,-34 C 5,-34 10,-29 10,-23 C 10,-16 6,-12 0,0 Z" fill="#87ceeb"/>
  </g>
  
  <g transform="translate(70, 50)">
    <path d="M 0,0 C -6,-12 -10,-16 -10,-23 C -10,-29 -5,-34 0,-34 C 5,-34 10,-29 10,-23 C 10,-16 6,-12 0,0 Z" fill="#87ceeb"/>
  </g>
</svg>
